{"title":"Shrek Forever After.2010.BRRip.720p-[xBlackEdge]","uid":5986115,"size":836768563,"categoryP":"video","categoryS":"hd___movies","magnet":"?xt=urn:btih:f9e5e709c95a65ab4056f41f01f4ee5d36cc7a96&amp;dn=Shrek+Forever+After.2010.BRRip.720p-%5BxBlackEdge%5D&amp;tr=udp%3A%2F%2Ftracker.openbittorrent.com%3A80&amp;tr=udp%3A%2F%2Fopen.demonii.com%3A1337&amp;tr=udp%3A%2F%2Ftracker.coppersurfer.tk%3A6969&amp;tr=udp%3A%2F%2Fexodus.desync.com%3A6969","seeders":0,"leechers":0,"uploader":"xBlackEdge","files":1,"time":1290745208,"description":"Video\nID                               : 1\nFormat                           : AVC\nFormat/Info                      : Advanced Video Codec\nFormat profile                   : &lt;a class=&quot;__cf_email__&quot; href=&quot;/cdn-cgi/l/email-protection&quot; data-cfemail=&quot;4e062729260e027b607f&quot;&gt;[email&amp;#160;protected]&lt;/a&gt;&lt;script cf-hash='f9e31' type=&quot;text/javascript&quot;&gt;\n/* &lt;![CDATA[ */!function(){try{var t=&quot;currentScript&quot;in document?document.currentScript:function(){for(var t=document.getElementsByTagName(&quot;script&quot;),e=t.length;e--;)if(t[e].getAttribute(&quot;cf-hash&quot;))return t[e]}();if(t&amp;&amp;t.previousSibling){var e,r,n,i,c=t.previousSibling,a=c.getAttribute(&quot;data-cfemail&quot;);if(a){for(e=&quot;&quot;,r=parseInt(a.substr(0,2),16),n=2;a.length-n;n+=2)i=parseInt(a.substr(n,2),16)^r,e+=String.fromCharCode(i);e=document.createTextNode(e),c.parentNode.replaceChild(e,c)}}}catch(u){}}();/* ]]&gt; */&lt;/script&gt;\nFormat settings, CABAC           : Yes\nFormat settings, ReFrames        : 3 frames\nCodec ID                         : avc1\nCodec ID/Info                    : Advanced Video Coding\nDuration                         : 1h 33mn\nBit rate mode                    : Variable\nBit rate                         : 1 130 Kbps\nMaximum bit rate                 : 6 345 Kbps\nWidth                            : 1 280 pixels\nHeight                           : 544 pixels\nDisplay aspect ratio             : 2.35:1\nFrame rate mode                  : Constant\nFrame rate                       : 23.976 fps\nColor space                      : YUV\nChroma subsampling               : 4:2:0\nBit depth                        : 8 bits\nScan type                        : Progressive\nBits/(Pixel*Frame)               : 0.068\nStream size                      : 753 MiB (94%)\n\n\nAudio\nID                               : 2\nFormat                           : AAC\nFormat/Info                      : Advanced Audio Codec\nFormat version                   : Version 4\nFormat profile                   : LC\nFormat settings, SBR             : No\nCodec ID                         : 40\nDuration                         : 1h 33mn\nBit rate mode                    : Variable\nBit rate                         : 63.6 Kbps\nMaximum bit rate                 : 100.0 Kbps\nChannel(s)                       : 2 channels\nChannel positions                : Front: L R\nSampling rate                    : 48.0 KHz\nStream size                      : 42.4 MiB (5%) &lt;a href=&quot;\nhttp://www.leetleech.org/images/36016257765762321163.png&quot; rel=&quot;nofollow&quot; target=&quot;_NEW&quot;&gt;\nhttp://www.leetleech.org/images/36016257765762321163.png&lt;/a&gt; &lt;a href=&quot;\nhttp://www.leetleech.org/images/70296904098590429153.png&quot; rel=&quot;nofollow&quot; target=&quot;_NEW&quot;&gt;\nhttp://www.leetleech.org/images/70296904098590429153.png&lt;/a&gt; &lt;a href=&quot;\nhttp://www.leetleech.org/images/53289861543176334615.png&quot; rel=&quot;nofollow&quot; target=&quot;_NEW&quot;&gt;\nhttp://www.leetleech.org/images/53289861543176334615.png&lt;/a&gt; &lt;a href=&quot;\nhttp://www.leetleech.org/images/87610962260206882120.png&quot; rel=&quot;nofollow&quot; target=&quot;_NEW&quot;&gt;\nhttp://www.leetleech.org/images/87610962260206882120.png&lt;/a&gt; &lt;a href=&quot;\nhttp://www.leetleech.org/images/47280246240472246059.png&quot; rel=&quot;nofollow&quot; target=&quot;_NEW&quot;&gt;\nhttp://www.leetleech.org/images/47280246240472246059.png&lt;/a&gt;\n\n","torrent":{"xt":"urn:btih:f9e5e709c95a65ab4056f41f01f4ee5d36cc7a96","amp;dn":"Shrek+Forever+After.2010.BRRip.720p-%5BxBlackEdge%5D","amp;tr":["udp%3A%2F%2Ftracker.openbittorrent.com%3A80","udp%3A%2F%2Fopen.demonii.com%3A1337","udp%3A%2F%2Ftracker.coppersurfer.tk%3A6969","udp%3A%2F%2Fexodus.desync.com%3A6969"],"infoHash":"f9e5e709c95a65ab4056f41f01f4ee5d36cc7a96","infoHashBuffer":{"type":"Buffer","data":[249,229,231,9,201,90,101,171,64,86,244,31,1,244,238,93,54,204,122,150]},"announce":[],"urlList":[]}}